<svg viewBox="0 0 32 32" fill="none">
  <path opacity=".35"
    d="M16 29.334c7.364 0 13.333-5.97 13.333-13.334 0-7.363-5.97-13.333-13.333-13.333C8.636 2.667 2.667 8.637 2.667 16c0 7.364 5.97 13.334 13.333 13.334z"
    fill="#252525" />
  <path
    d="M19.733 21.6L10.4 12.267a1.289 1.289 0 010-1.867 1.289 1.289 0 011.867 0l9.333 9.333a1.289 1.289 0 010 1.867 1.289 1.289 0 01-1.867 0z"
    fill="#252525" />
  <path
    d="M10.4 19.733l9.333-9.333a1.289 1.289 0 011.867 0 1.289 1.289 0 010 1.867L12.267 21.6a1.289 1.289 0 01-1.867 0 1.289 1.289 0 010-1.867z"
    fill="#252525" />
</svg>