<svg width="32" height="32" viewBox="0 0 32 32" fill="none" xmlns="http://www.w3.org/2000/svg">
<path d="M15.9999 10.6663C17.4755 10.6663 18.6666 9.47523 18.6666 7.99967C18.6666 6.52412 17.4755 5.33301 15.9999 5.33301C14.5244 5.33301 13.3333 6.52412 13.3333 7.99967C13.3333 9.47523 14.5244 10.6663 15.9999 10.6663ZM15.9999 13.333C14.5244 13.333 13.3333 14.5241 13.3333 15.9997C13.3333 17.4752 14.5244 18.6663 15.9999 18.6663C17.4755 18.6663 18.6666 17.4752 18.6666 15.9997C18.6666 14.5241 17.4755 13.333 15.9999 13.333ZM15.9999 21.333C14.5244 21.333 13.3333 22.5241 13.3333 23.9997C13.3333 25.4752 14.5244 26.6663 15.9999 26.6663C17.4755 26.6663 18.6666 25.4752 18.6666 23.9997C18.6666 22.5241 17.4755 21.333 15.9999 21.333Z" fill="#8B8B8B"/>
</svg>
