<svg viewBox="0 0 33 32" fill="none">
  <path opacity=".35" d="M26 5.333H7.334a4 4 0 00-4 4V16a4 4 0 004 4H26a4 4 0 004-4V9.334a4 4 0 00-4-4z"
    fill="#A6A6A6" />
  <path
    d="M24.667 17.333a1.333 1.333 0 100-2.667 1.333 1.333 0 000 2.667zM8.667 17.333a1.333 1.333 0 100-2.667 1.333 1.333 0 000 2.667z"
    fill="#A6A6A6" />
  <path
    d="M26 20H7.334a4 4 0 01-4-4v8a4 4 0 004 4H26a4 4 0 004-4v-8a4 4 0 01-4 4zM18 2.667h-2.667a2.666 2.666 0 00-2.666 2.666h8A2.666 2.666 0 0018 2.666z"
    fill="#A6A6A6" />
</svg>