<svg viewBox="0 0 24 24">
  <path d="M17 22H7a3 3 0 01-3-3V6h16v13a3 3 0 01-3 3z" opacity=".35" fill="#252525" />
  <path d="M16 4H8V3a1 1 0 011-1h6a1 1 0 011 1v1z" fill="#252525" />
  <path
    d="M19 3H5a2 2 0 100 4h14a2 2 0 100-4zM14.812 18.215l-7.027-7.027a.985.985 0 010-1.392l.011-.011a.985.985 0 011.392 0l7.027 7.027a.985.985 0 010 1.392l-.011.011a.985.985 0 01-1.392 0z"
    fill="#252525" />
  <path
    d="M7.785 16.812l7.027-7.027a.985.985 0 011.392 0l.011.011a.985.985 0 010 1.392l-7.027 7.027a.985.985 0 01-1.392 0l-.011-.011a.985.985 0 010-1.392z"
    fill="#252525" />
</svg>