<svg viewBox="0 0 33 32" fill="none">
  <path opacity=".35"
    d="M16.667 29.334C24.03 29.334 30 23.364 30 16c0-7.363-5.97-13.333-13.333-13.333C9.303 2.667 3.333 8.637 3.333 16c0 7.364 5.97 13.334 13.334 13.334z"
    fill="#A6A6A6" />
  <path d="M16.667 18.666a2.667 2.667 0 100-5.333 2.667 2.667 0 000 5.333z" fill="#A6A6A6" />
  <path
    d="M16.667 17.333a1.332 1.332 0 01-.943-2.276l9.333-9.333a1.332 1.332 0 011.886 0 1.332 1.332 0 010 1.885l-9.334 9.334c-.26.26-.601.39-.942.39z"
    fill="#A6A6A6" />
  <path
    d="M21.964 16.359c-.19 2.77-2.48 4.974-5.297 4.974A5.339 5.339 0 0111.333 16c0-2.817 2.204-5.108 4.975-5.297l2.423-2.423A7.933 7.933 0 0016.667 8c-4.412 0-8 3.588-8 8s3.588 8 8 8 8-3.588 8-8a7.93 7.93 0 00-.28-2.064l-2.423 2.423z"
    fill="#A6A6A6" />
  <path
    d="M26.487 11.836c.544 1.28.847 2.688.847 4.164 0 5.882-4.786 10.667-10.667 10.667C10.785 26.667 6 21.882 6 16 6 10.12 10.786 5.334 16.667 5.334c1.476 0 2.884.302 4.164.846l1.995-1.994a13.241 13.241 0 00-6.16-1.519C9.316 2.667 3.335 8.648 3.335 16s5.98 13.334 13.333 13.334C24.019 29.334 30 23.352 30 16c0-2.221-.553-4.314-1.518-6.158l-1.995 1.994z"
    fill="#A6A6A6" />
</svg>