<svg viewBox="0 0 33 32" fill="none">
  <path opacity=".35" d="M6 25.333V6.667a4 4 0 014-4h9.333l8 8v14.666a4 4 0 01-4 4H10a4 4 0 01-4-4z" fill="#A6A6A6" />
  <path
    d="M19.334 8V2.667l8 8H22A2.666 2.666 0 0119.334 8zM22 25.333A1.334 1.334 0 0120.667 24v-2.667a1.334 1.334 0 012.666 0V24c0 .736-.597 1.333-1.333 1.333zM11.333 25.334A1.334 1.334 0 0110 24v-5.333a1.334 1.334 0 012.667 0V24c0 .736-.598 1.334-1.334 1.334zM16.667 25.334A1.334 1.334 0 0115.333 24v-9.333a1.334 1.334 0 012.667 0V24c0 .736-.597 1.334-1.333 1.334z"
    fill="#A6A6A6" />
</svg>