<svg width="32" height="32" viewBox="0 0 32 32" fill="none" xmlns="http://www.w3.org/2000/svg">
<path fill-rule="evenodd" clip-rule="evenodd" d="M15.0011 12.6071L25.0001 12.6071C25.2653 12.6071 25.5196 12.7482 25.7071 12.9994C25.8947 13.2506 26 13.5912 26 13.9464C26 14.3016 25.8947 14.6423 25.7071 14.8934C25.5196 15.1446 25.2653 15.2857 25.0001 15.2857L15.0011 15.2857C14.7359 15.2857 14.4816 15.1446 14.294 14.8934C14.1065 14.6423 14.0012 14.3016 14.0012 13.9464C14.0012 13.5912 14.1065 13.2506 14.294 12.9994C14.4816 12.7482 14.7359 12.6071 15.0011 12.6071ZM15.0011 17.9643H25.0001C25.2653 17.9643 25.5196 18.1054 25.7071 18.3566C25.8947 18.6077 26 18.9484 26 19.3036C26 19.6588 25.8947 19.9994 25.7071 20.2506C25.5196 20.5018 25.2653 20.6429 25.0001 20.6429H15.0011C14.7359 20.6429 14.4816 20.5018 14.294 20.2506C14.1065 19.9994 14.0012 19.6588 14.0012 19.3036C14.0012 18.9484 14.1065 18.6077 14.294 18.3566C14.4816 18.1054 14.7359 17.9643 15.0011 17.9643ZM7.00186 23.3214L25.0001 23.3214C25.2653 23.3214 25.5196 23.4625 25.7071 23.7137C25.8947 23.9649 26 24.3055 26 24.6607C26 25.0159 25.8947 25.3566 25.7071 25.6077C25.5196 25.8589 25.2653 26 25.0001 26L7.00186 26C6.73667 26 6.48234 25.8589 6.29482 25.6077C6.1073 25.3566 6.00196 25.0159 6.00196 24.6607C6.00196 24.3055 6.1073 23.9649 6.29482 23.7137C6.48234 23.4625 6.73667 23.3214 7.00186 23.3214ZM25.0001 9.92857L7.00186 9.92857C6.73667 9.92857 6.48234 9.78747 6.29482 9.5363C6.1073 9.28514 6.00196 8.94449 6.00196 8.58928C6.00196 8.23408 6.1073 7.89343 6.29482 7.64227C6.48234 7.3911 6.73667 7.25 7.00186 7.25L25.0001 7.25C25.2653 7.25 25.5196 7.3911 25.7071 7.64227C25.8947 7.89343 26 8.23408 26 8.58928C26 8.94449 25.8947 9.28514 25.7071 9.5363C25.5196 9.78747 25.2653 9.92857 25.0001 9.92857Z" fill="#969696"/>
<path d="M8.36173 19.8795C8.46047 20.0074 8.57784 20.1067 8.7065 20.1711C8.83516 20.2356 8.97236 20.2639 9.10954 20.2542C9.24672 20.2445 9.38093 20.197 9.50381 20.1148C9.62669 20.0325 9.7356 19.9172 9.82375 19.7761C9.91189 19.635 9.97738 19.471 10.0161 19.2945C10.0549 19.118 10.0661 18.9327 10.049 18.7501C10.0319 18.5675 9.98688 18.3917 9.9168 18.2334C9.84671 18.0752 9.75303 17.938 9.6416 17.8304L8.5617 16.625L9.6416 15.4196C9.74285 15.3072 9.82654 15.1691 9.88789 15.0133C9.94923 14.8575 9.98703 14.687 9.9991 14.5116C10.0112 14.3362 9.9973 14.1593 9.95826 13.9911C9.91922 13.8228 9.85578 13.6666 9.77159 13.5312C9.67757 13.3801 9.55985 13.2585 9.42677 13.1752C9.2937 13.0918 9.00166 13.0491 9.00166 13.0491C9.00166 13.0491 8.54023 13.166 8.36173 13.3705L6.36192 15.5937C6.24869 15.7194 6.15755 15.877 6.09499 16.0552C6.03244 16.2335 6 16.428 6 16.625C6 16.822 6.03244 17.0165 6.09499 17.1948C6.15755 17.373 6.24869 17.5306 6.36192 17.6563L8.36173 19.8795Z" fill="#969696"/>
</svg>
