<svg viewBox="0 0 33 32" fill="none">
  <path opacity=".35"
    d="M16.667 6c0-1.841-2.986-3.333-6.667-3.333C6.32 2.667 3.333 4.159 3.333 6v20c0 1.841 2.986 3.333 6.667 3.333 3.681 0 6.667-1.492 6.667-3.333V6z"
    fill="#A6A6A6" />
  <path opacity=".35"
    d="M30 11.333C30 9.492 27.015 8 23.333 8c-3.68 0-6.666 1.492-6.666 3.333v12c0 1.842 2.985 3.334 6.666 3.334 3.682 0 6.667-1.492 6.667-3.334v-12z"
    fill="#A6A6A6" />
  <path
    d="M23.333 22.667c-3.68 0-6.666-1.492-6.666-3.334v4c0 1.842 2.985 3.334 6.666 3.334 3.682 0 6.667-1.492 6.667-3.334v-4c0 1.842-2.985 3.334-6.667 3.334z"
    fill="#A6A6A6" />
  <path
    d="M10 25.333c-3.681 0-6.667-1.492-6.667-3.333v4c0 1.841 2.986 3.333 6.667 3.333 3.681 0 6.667-1.492 6.667-3.333v-4c0 1.841-2.986 3.333-6.667 3.333zM10 17.333c-3.681 0-6.667-1.492-6.667-3.333v4c0 1.841 2.986 3.333 6.667 3.333 3.681 0 6.667-1.492 6.667-3.333v-4c0 1.841-2.986 3.333-6.667 3.333zM10 9.333C6.32 9.333 3.333 7.841 3.333 6v4c0 1.841 2.986 3.333 6.667 3.333 3.681 0 6.667-1.492 6.667-3.333V6c0 1.841-2.986 3.333-6.667 3.333z"
    fill="#A6A6A6" />
  <path
    d="M23.333 14.667c-3.68 0-6.666-1.492-6.666-3.333v4c0 1.84 2.985 3.333 6.666 3.333 3.682 0 6.667-1.492 6.667-3.334v-4c0 1.842-2.985 3.334-6.667 3.334z"
    fill="#A6A6A6" />
</svg>