<svg viewBox="0 0 33 32" fill="none">
  <path opacity=".35" d="M28.667 24V9.333h-24V24a4 4 0 004 4h16a4 4 0 004-4z" fill="#A6A6A6" />
  <path
    d="M24.667 4h-16a4 4 0 00-4 4v1.333h24V8a4 4 0 00-4-4zM14 25.333a1.333 1.333 0 100-2.666 1.333 1.333 0 000 2.666zM8.667 25.333a1.333 1.333 0 100-2.667 1.333 1.333 0 000 2.667zM8.667 20a1.333 1.333 0 100-2.667 1.333 1.333 0 000 2.667zM14 20a1.333 1.333 0 100-2.666A1.333 1.333 0 0014 20zM19.333 25.333a1.333 1.333 0 100-2.667 1.333 1.333 0 000 2.667zM14 14.667A1.333 1.333 0 1014 12a1.333 1.333 0 000 2.667zM24.667 20a1.33 1.33 0 01-.943-.39l-5.333-5.334a1.332 1.332 0 010-1.886 1.332 1.332 0 011.885 0l5.333 5.334A1.332 1.332 0 0124.667 20z"
    fill="#A6A6A6" />
  <path
    d="M19.333 20a1.332 1.332 0 01-.943-2.276l5.334-5.334a1.332 1.332 0 011.885 0 1.332 1.332 0 010 1.886l-5.333 5.333c-.26.26-.601.39-.943.39z"
    fill="#A6A6A6" />
</svg>