<svg viewBox="0 0 33 32" fill="none">
  <path opacity=".35"
    d="M10.667 28H5.334a2 2 0 01-2-2V6a2 2 0 012-2h5.333a2 2 0 012 2v20a2 2 0 01-2 2zM28 28h-5.333a2 2 0 01-2-2V10a2 2 0 012-2H28a2 2 0 012 2v16a2 2 0 01-2 2zM16.667 25.334a1.333 1.333 0 100-2.667 1.333 1.333 0 000 2.667z"
    fill="#A6A6A6" />
  <path
    d="M8 25.333a2 2 0 100-4 2 2 0 000 4zM25.334 25.333a2 2 0 100-4 2 2 0 000 4zM18.667 10.667h-4a2 2 0 00-2 2V26a2 2 0 002 2h4a2 2 0 002-2V12.667a2 2 0 00-2-2zm-2 14.667a1.334 1.334 0 110-2.668 1.334 1.334 0 010 2.668zM10 9.334H6a1.333 1.333 0 110-2.667h4a1.333 1.333 0 110 2.667zM10 13.334H6a1.333 1.333 0 110-2.667h4a1.333 1.333 0 110 2.667zM27.333 13.334h-4a1.333 1.333 0 110-2.667h4a1.333 1.333 0 110 2.667zM27.333 17.334h-4a1.333 1.333 0 110-2.667h4a1.333 1.333 0 110 2.667z"
    fill="#A6A6A6" />
</svg>