<svg viewBox="0 0 105 30" fill="none">
  <path
    d="M40.594 10.5V7H54.5v3.5h-4.813V23h-4.28V10.5h-4.813zM70.883 15c0 1.781-.346 3.284-1.04 4.508-.692 1.219-1.627 2.143-2.804 2.773-1.177.625-2.49.938-3.937.938-1.459 0-2.776-.315-3.954-.946-1.171-.635-2.104-1.562-2.796-2.78-.688-1.225-1.032-2.722-1.032-4.493 0-1.781.344-3.281 1.032-4.5.692-1.224 1.625-2.148 2.796-2.773 1.177-.63 2.495-.946 3.954-.946 1.447 0 2.76.315 3.937.946 1.177.625 2.112 1.549 2.805 2.773.693 1.219 1.039 2.719 1.039 4.5zm-4.469 0c0-.958-.127-1.766-.383-2.422-.25-.661-.622-1.161-1.117-1.5-.49-.344-1.094-.515-1.812-.515-.72 0-1.326.171-1.82.515-.49.339-.863.839-1.118 1.5-.25.656-.375 1.464-.375 2.422 0 .958.125 1.768.375 2.43.255.656.628 1.156 1.117 1.5.495.338 1.102.508 1.82.508.72 0 1.323-.17 1.813-.508.495-.344.867-.844 1.117-1.5.255-.662.383-1.472.383-2.43zm12.635 8h-6.156V7h6.093c1.646 0 3.068.32 4.266.96a6.618 6.618 0 012.781 2.75c.656 1.194.985 2.623.985 4.29 0 1.667-.326 3.099-.977 4.297a6.701 6.701 0 01-2.766 2.75c-1.192.635-2.601.953-4.226.953zm-1.813-3.688h1.657c.791 0 1.466-.127 2.023-.382.563-.256.99-.696 1.281-1.32.297-.626.446-1.495.446-2.61 0-1.115-.151-1.984-.454-2.61-.296-.624-.734-1.065-1.312-1.32-.573-.255-1.276-.383-2.11-.383h-1.53v8.626zM104.527 15c0 1.781-.346 3.284-1.039 4.508-.692 1.219-1.627 2.143-2.804 2.773-1.177.625-2.49.938-3.938.938-1.458 0-2.776-.315-3.953-.946-1.172-.635-2.104-1.562-2.797-2.78-.687-1.225-1.031-2.722-1.031-4.493 0-1.781.344-3.281 1.031-4.5.693-1.224 1.625-2.148 2.797-2.773 1.177-.63 2.495-.946 3.953-.946 1.448 0 2.76.315 3.938.946 1.177.625 2.112 1.549 2.804 2.773.693 1.219 1.039 2.719 1.039 4.5zm-4.468 0c0-.958-.128-1.766-.383-2.422-.25-.661-.623-1.161-1.117-1.5-.49-.344-1.094-.515-1.813-.515-.719 0-1.325.171-1.82.515-.49.339-.862.839-1.117 1.5-.25.656-.375 1.464-.375 2.422 0 .958.125 1.768.375 2.43.255.656.627 1.156 1.117 1.5.495.338 1.101.508 1.82.508.719 0 1.323-.17 1.813-.508.494-.344.867-.844 1.117-1.5.255-.662.383-1.472.383-2.43z"
    fill="#1BE3A7" />
  <circle cx="12" cy="12" r="10" stroke="#0075FF" stroke-width="4" />
  <circle cx="24" cy="22" r="6" stroke="#1BE3A7" stroke-width="4" />
</svg>