<svg width="32" height="32" viewBox="0 0 32 32" fill="none" xmlns="http://www.w3.org/2000/svg">
<path d="M24 17.5737V13.3337C23.9981 11.4445 23.3276 9.61695 22.1075 8.17469C20.8873 6.73243 19.1961 5.76852 17.3333 5.45366V4.00033C17.3333 3.6467 17.1928 3.30756 16.9428 3.05752C16.6927 2.80747 16.3536 2.66699 16 2.66699C15.6464 2.66699 15.3072 2.80747 15.0572 3.05752C14.8071 3.30756 14.6666 3.6467 14.6666 4.00033V5.45366C12.8039 5.76852 11.1127 6.73243 9.89249 8.17469C8.67231 9.61695 8.00189 11.4445 7.99998 13.3337V17.5737C7.22191 17.8487 6.54798 18.3578 6.07056 19.0309C5.59315 19.7041 5.33563 20.5084 5.33331 21.3337V24.0003C5.33331 24.3539 5.47379 24.6931 5.72384 24.9431C5.97389 25.1932 6.31302 25.3337 6.66665 25.3337H10.8533C11.1604 26.4635 11.8306 27.4609 12.7608 28.172C13.6909 28.8831 14.8292 29.2683 16 29.2683C17.1708 29.2683 18.3091 28.8831 19.2392 28.172C20.1693 27.4609 20.8396 26.4635 21.1466 25.3337H25.3333C25.6869 25.3337 26.0261 25.1932 26.2761 24.9431C26.5262 24.6931 26.6666 24.3539 26.6666 24.0003V21.3337C26.6643 20.5084 26.4068 19.7041 25.9294 19.0309C25.452 18.3578 24.778 17.8487 24 17.5737V17.5737ZM10.6666 13.3337C10.6666 11.9192 11.2285 10.5626 12.2287 9.56242C13.2289 8.56223 14.5855 8.00033 16 8.00033C17.4145 8.00033 18.771 8.56223 19.7712 9.56242C20.7714 10.5626 21.3333 11.9192 21.3333 13.3337V17.3337H10.6666V13.3337ZM16 26.667C15.5346 26.6642 15.0781 26.5396 14.6758 26.3057C14.2734 26.0718 13.9393 25.7367 13.7066 25.3337H18.2933C18.0606 25.7367 17.7265 26.0718 17.3242 26.3057C16.9219 26.5396 16.4653 26.6642 16 26.667ZM24 22.667H7.99998V21.3337C7.99998 20.98 8.14046 20.6409 8.3905 20.3908C8.64055 20.1408 8.97969 20.0003 9.33331 20.0003H22.6666C23.0203 20.0003 23.3594 20.1408 23.6095 20.3908C23.8595 20.6409 24 20.98 24 21.3337V22.667Z" fill="#717986"/>
</svg>
