<svg width="32" height="32" viewBox="0 0 32 32" fill="none" xmlns="http://www.w3.org/2000/svg">
<path d="M25.3333 14.6663H17.3333V6.66634C17.3333 6.31272 17.1928 5.97358 16.9427 5.72353C16.6927 5.47348 16.3535 5.33301 15.9999 5.33301C15.6463 5.33301 15.3072 5.47348 15.0571 5.72353C14.8071 5.97358 14.6666 6.31272 14.6666 6.66634V14.6663H6.66659C6.31296 14.6663 5.97382 14.8068 5.72378 15.0569C5.47373 15.3069 5.33325 15.6461 5.33325 15.9997C5.33325 16.3533 5.47373 16.6924 5.72378 16.9425C5.97382 17.1925 6.31296 17.333 6.66659 17.333H14.6666V25.333C14.6666 25.6866 14.8071 26.0258 15.0571 26.2758C15.3072 26.5259 15.6463 26.6663 15.9999 26.6663C16.3535 26.6663 16.6927 26.5259 16.9427 26.2758C17.1928 26.0258 17.3333 25.6866 17.3333 25.333V17.333H25.3333C25.6869 17.333 26.026 17.1925 26.2761 16.9425C26.5261 16.6924 26.6666 16.3533 26.6666 15.9997C26.6666 15.6461 26.5261 15.3069 26.2761 15.0569C26.026 14.8068 25.6869 14.6663 25.3333 14.6663Z" fill="white"/>
</svg>
