<svg width="32" height="32" viewBox="0 0 32 32" fill="none" xmlns="http://www.w3.org/2000/svg">
<path d="M8.38671 19.0533L8.00004 19.4533V9.33333C8.00004 8.97971 7.85957 8.64057 7.60952 8.39052C7.35947 8.14048 7.02033 8 6.66671 8C6.31309 8 5.97395 8.14048 5.7239 8.39052C5.47385 8.64057 5.33338 8.97971 5.33338 9.33333V19.4533L4.94671 19.0533C4.69564 18.8023 4.35511 18.6612 4.00004 18.6612C3.64497 18.6612 3.30445 18.8023 3.05338 19.0533C2.80231 19.3044 2.66125 19.6449 2.66125 20C2.66125 20.3551 2.80231 20.6956 3.05338 20.9467L5.72004 23.6133C5.84685 23.7347 5.99638 23.8299 6.16004 23.8933C6.31964 23.9639 6.49222 24.0003 6.66671 24.0003C6.8412 24.0003 7.01378 23.9639 7.17338 23.8933C7.33705 23.8299 7.48657 23.7347 7.61338 23.6133L10.28 20.9467C10.4044 20.8223 10.503 20.6748 10.5703 20.5123C10.6375 20.3499 10.6722 20.1758 10.6722 20C10.6722 19.8242 10.6375 19.6501 10.5703 19.4877C10.503 19.3252 10.4044 19.1777 10.28 19.0533C10.1557 18.929 10.0081 18.8304 9.84571 18.7631C9.68328 18.6958 9.50919 18.6612 9.33338 18.6612C9.15756 18.6612 8.98347 18.6958 8.82104 18.7631C8.65862 18.8304 8.51103 18.929 8.38671 19.0533V19.0533ZM14.6667 10.6667H28C28.3537 10.6667 28.6928 10.5262 28.9429 10.2761C29.1929 10.0261 29.3334 9.68696 29.3334 9.33333C29.3334 8.97971 29.1929 8.64057 28.9429 8.39052C28.6928 8.14048 28.3537 8 28 8H14.6667C14.3131 8 13.9739 8.14048 13.7239 8.39052C13.4739 8.64057 13.3334 8.97971 13.3334 9.33333C13.3334 9.68696 13.4739 10.0261 13.7239 10.2761C13.9739 10.5262 14.3131 10.6667 14.6667 10.6667V10.6667ZM28 14.6667H14.6667C14.3131 14.6667 13.9739 14.8071 13.7239 15.0572C13.4739 15.3072 13.3334 15.6464 13.3334 16C13.3334 16.3536 13.4739 16.6928 13.7239 16.9428C13.9739 17.1929 14.3131 17.3333 14.6667 17.3333H28C28.3537 17.3333 28.6928 17.1929 28.9429 16.9428C29.1929 16.6928 29.3334 16.3536 29.3334 16C29.3334 15.6464 29.1929 15.3072 28.9429 15.0572C28.6928 14.8071 28.3537 14.6667 28 14.6667ZM28 21.3333H14.6667C14.3131 21.3333 13.9739 21.4738 13.7239 21.7239C13.4739 21.9739 13.3334 22.313 13.3334 22.6667C13.3334 23.0203 13.4739 23.3594 13.7239 23.6095C13.9739 23.8595 14.3131 24 14.6667 24H28C28.3537 24 28.6928 23.8595 28.9429 23.6095C29.1929 23.3594 29.3334 23.0203 29.3334 22.6667C29.3334 22.313 29.1929 21.9739 28.9429 21.7239C28.6928 21.4738 28.3537 21.3333 28 21.3333Z" fill="#3C557A"/>
</svg>
